HIERARCHY
ROOT Hips
{
  OFFSET 13.6774 106.653 -34.4427
  CHANNELS 6 Xposition Yposition Zposition Zrotation Xrotation Yrotation
  JOINT ToSpine
  {
    OFFSET -2.69724 7.43032 -0.144315
    CHANNELS 3 Zrotation Xrotation Yrotation
    JOINT Spine
    {
      OFFSET -0.0310711 10.7595 1.96963
      CHANNELS 3 Zrotation Xrotation Yrotation
      JOINT Spine1
      {
        OFFSET 19.9056 3.91189 0.764692
        CHANNELS 3 Zrotation Xrotation Yrotation
        JOINT Neck
        {
          OFFSET 25.9749 7.03908 -0.130764
          CHANNELS 3 Zrotation Xrotation Yrotation
          JOINT Head
          {
            OFFSET 9.52751 0.295786 -0.907742
            CHANNELS 3 Zrotation Xrotation Yrotation
            End Site
            {
              OFFSET 16.4037 0.713936 2.7358
            }
          }
        }
        JOINT LeftShoulder
        {
          OFFSET 17.7449 4.33886 11.7777
          CHANNELS 3 Zrotation Xrotation Yrotation
          JOINT LeftArm
          {
            OFFSET 0.911315 1.27913 9.80584
            CHANNELS 3 Zrotation Xrotation Yrotation
            JOINT LeftForeArm
            {
              OFFSET 28.6126 1.18197 -3.53199
              CHANNELS 3 Zrotation Xrotation Yrotation
              JOINT LeftHand
              {
                OFFSET 27.5088 0.0218783 0.327423
                CHANNELS 3 Zrotation Xrotation Yrotation
                End Site
                {
                  OFFSET 18.6038 -0.000155887 0.382096
                }
              }
            }
          }
        }
        JOINT RightShoulder
        {
          OFFSET 17.1009 2.89543 -12.2328
          CHANNELS 3 Zrotation Xrotation Yrotation
          JOINT RightArm
          {
            OFFSET 1.4228 0.178766 -10.211
            CHANNELS 3 Zrotation Xrotation Yrotation
            JOINT RightForeArm
            {
              OFFSET 28.733 1.87905 2.64907
              CHANNELS 3 Zrotation Xrotation Yrotation
              JOINT RightHand
              {
                OFFSET 27.4588 0.290562 -0.101845
                CHANNELS 3 Zrotation Xrotation Yrotation
                End Site
                {
                  OFFSET 17.8396 -0.255518 -0.000602873
                }
              }
            }
          }
        }
      }
    }
  }
  JOINT LeftUpLeg
  {
    OFFSET -5.61296 -2.22332 -10.2353
    CHANNELS 3 Zrotation Xrotation Yrotation
    JOINT LeftLeg
    {
      OFFSET 2.56703 -44.7417 -7.93097
      CHANNELS 3 Zrotation Xrotation Yrotation
      JOINT LeftFoot
      {
        OFFSET 3.16933 -46.5642 -3.96578
        CHANNELS 3 Zrotation Xrotation Yrotation
        JOINT LeftToeBase
        {
          OFFSET 0.346054 -6.02161 12.8035
          CHANNELS 3 Zrotation Xrotation Yrotation
          End Site
          {
            OFFSET 0.134235 -1.35082 5.13018
          }
        }
      }
    }
  }
  JOINT RightUpLeg
  {
    OFFSET -5.7928 -1.72406 10.6446
    CHANNELS 3 Zrotation Xrotation Yrotation
    JOINT RightLeg
    {
      OFFSET -2.57161 -44.7178 -7.85259
      CHANNELS 3 Zrotation Xrotation Yrotation
      JOINT RightFoot
      {
        OFFSET -3.10148 -46.5936 -4.03391
        CHANNELS 3 Zrotation Xrotation Yrotation
        JOINT RightToeBase
        {
          OFFSET -0.0828122 -6.13587 12.8035
          CHANNELS 3 Zrotation Xrotation Yrotation
          End Site
          {
            OFFSET -0.131328 -1.35082 5.13018
          }
        }
      }
    }
  }
}
MOTION
Frames: 14
Frame Time: 0.03333333333333333
0.0000 93.1000 0.0000 -63.8502 -38.0378 -161.9218 -71.4638 -0.1195 87.8756 89.3401 75.8761 -0.2964 4.1072 30.2617 -5.5249 -131.1938 21.5089 -163.5177 -152.6810 55.6370 -174.8297 0.2727 -14.0750 -21.6414 -128.1515 37.4633 -78.7225 18.9308 -16.2275 -126.8451 0.1737 -0.0116 0.7269 -1.7014 8.4876 26.8427 -54.2790 -33.9707 153.0859 6.3198 1.8107 110.4340 -0.4879 0.5532 0.3235 -37.4343 16.0711 94.4789 -3.7991 42.3609 -9.7727 -1.9097 -6.3300 -0.8697 3.0305 -10.1119 7.3267 -52.9479 -14.0346 78.7012 0.0151 30.3517 5.2320 -4.5738 -9.4329 0.3590 1.6903 -16.4128 -5.4502 
0.0000 93.1000 0.0000 -64.0216 -39.3851 -162.0566 -71.4191 -0.1515 87.9921 89.0116 75.6239 1.1828 4.5504 29.6101 -6.1288 -130.1837 21.1733 -165.2397 -150.2718 55.0085 -176.0059 0.2079 -13.7976 -21.6541 -128.4067 37.9957 -78.4267 19.5053 -15.9943 -126.4244 0.3242 -0.0409 0.6796 -1.7618 8.5773 26.5864 -54.1629 -34.1112 153.2659 7.2775 1.8784 109.6776 -0.4512 0.4864 0.3339 -38.7465 16.5372 93.1695 -3.4000 38.8410 -9.9823 -3.4694 -3.5180 -0.4325 2.6709 -9.7993 8.2548 -53.0399 -13.3062 78.1423 -0.0503 31.3063 6.1091 -2.9996 -9.8066 0.1737 1.4941 -16.4396 -5.1962 
0.0000 93.1000 0.0000 -63.9584 -40.0882 -161.9717 -71.4636 -0.0234 88.0297 87.4795 75.0976 1.7880 5.2188 29.4640 -6.7279 -131.4604 20.8142 -165.6845 -152.1786 54.9357 -175.2985 0.4527 -13.7723 -21.2051 -129.1259 37.8479 -77.7180 19.1755 -16.0139 -125.4447 -0.1278 0.3364 0.2949 -2.0336 8.6706 26.3728 -53.9474 -34.7956 153.9198 7.4040 2.1950 108.9565 0.0065 -0.5960 -0.4670 -39.3807 17.0981 93.5444 -3.4556 35.4409 -9.5407 -3.9375 -2.0118 -0.3244 1.8812 -7.8138 9.2618 -53.4901 -12.9748 77.8337 0.0857 30.7222 7.9174 -2.8788 -9.9064 0.8951 1.8066 -16.5201 -4.9965 
0.0000 93.1000 0.0000 -62.9254 -41.0520 -160.1337 -71.4406 0.2875 87.9582 87.4683 74.8200 1.4024 4.6596 29.2731 -6.8280 -128.5018 20.9121 -167.1321 -144.9887 54.5301 -179.2861 0.0701 -14.0293 -21.2673 -128.9920 37.1938 -77.6833 19.1001 -15.8585 -125.3260 0.0222 0.2462 0.3584 -2.0576 8.1378 26.3599 -54.6484 -34.7274 152.9272 6.7545 1.7963 109.2120 -0.1093 -0.1843 -0.0355 -39.1448 17.0299 94.7821 -4.2736 34.5459 -8.0117 -4.4454 -2.0159 -0.4260 0.5620 -5.5487 10.2641 -54.2169 -11.9730 78.1026 0.3313 30.1216 6.5380 -1.9111 -11.7769 0.6630 1.3560 -13.5020 -4.3379 
0.0000 93.1000 0.0000 -62.5092 -42.8592 -159.1242 -71.5019 0.0860 87.8583 88.4192 74.0658 0.4172 4.7839 28.4526 -6.1563 -130.4323 21.0944 -166.6708 -149.7828 54.2839 -177.4742 0.2893 -14.1293 -21.9080 -129.2784 36.4728 -77.1271 18.8841 -15.4502 -125.6390 -0.3602 0.1771 0.3604 -2.0571 8.0138 25.8719 -54.5758 -35.5014 152.9044 7.1497 2.0221 108.9286 0.1037 -0.3260 -0.1341 -39.0814 17.6592 97.8797 -3.0350 35.1943 -10.9693 -5.1380 -2.5202 -0.1600 0.2687 -5.2945 11.5462 -54.7977 -11.1526 78.1950 -0.6279 30.3884 3.8769 -2.1403 -13.4970 0.9285 0.6639 -11.7433 -3.0953 
0.0000 93.1000 0.0000 -62.8506 -44.4094 -159.6058 -71.5181 0.2582 87.7538 90.7083 73.9629 -1.6882 4.2718 28.3410 -5.8070 -130.3634 21.0874 -166.8930 -150.2026 54.3208 -177.0805 0.3585 -14.1120 -22.2444 -129.5204 35.7902 -76.9510 19.0660 -14.8520 -125.7871 -0.5940 0.1537 0.6777 -1.8413 7.9274 25.7939 -54.8490 -35.2560 153.0275 6.6724 2.0976 109.1784 0.0177 0.1988 0.3384 -38.9398 16.7742 99.7279 -3.4350 37.0327 -9.6908 -4.6985 -4.0785 -0.2831 -0.4709 -3.8948 8.9264 -54.7573 -10.0269 78.7819 -0.2108 31.2033 2.7781 -1.6537 -14.9873 0.8947 1.2875 -10.3914 -4.2925 
0.0000 93.1000 0.0000 -62.9535 -44.6293 -160.5520 -71.5102 -0.0593 87.6591 91.3802 73.8998 -1.9794 4.1861 28.1003 -5.8060 -130.0748 21.3371 -166.5677 -151.1211 54.7289 -175.0957 0.2663 -14.1220 -23.2215 -129.8093 34.6117 -76.1059 19.2250 -15.2666 -125.8093 -0.9127 0.0410 0.5100 -2.0165 8.1073 25.2924 -54.8851 -36.0447 152.8724 7.1490 2.2590 109.1608 0.0728 -0.0160 -0.1169 -39.6520 16.1350 100.6408 -2.6761 36.5534 -7.8931 -3.9424 -3.1669 -0.1338 -0.1603 -3.3267 6.5502 -54.1795 -9.9383 79.8584 -0.2200 32.9083 1.6845 -2.4019 -15.1514 0.8695 1.0016 -10.0432 -4.5406 
0.0000 93.1000 0.0000 -63.6043 -44.0368 -161.4483 -71.5282 -0.0566 87.6457 90.4749 74.3042 -0.3176 4.7514 27.8739 -6.1272 -130.9250 21.2624 -164.2503 -153.5800 54.7885 -174.5698 0.2195 -13.8631 -23.2735 -130.2381 33.8501 -74.8771 19.2238 -15.3843 -125.4963 -0.6991 -0.0641 0.2365 -2.1520 8.2352 25.0965 -53.9705 -35.8629 153.5966 7.0714 2.3056 108.9729 0.0171 -0.2277 -0.2998 -40.8834 15.8115 101.4736 -2.5095 34.4273 -5.4693 -2.9691 -1.7166 -0.2072 -0.3615 -1.8888 3.5207 -54.2104 -9.6181 80.1442 0.1409 32.9153 1.6682 -2.7521 -15.7205 0.8458 0.8891 -9.5195 -5.3707 
0.0000 93.1000 0.0000 -63.7324 -43.9062 -160.8903 -71.6229 -0.0257 87.7580 89.9433 74.2206 0.9869 4.7737 28.0764 -6.5847 -130.4121 21.0238 -164.1476 -151.6603 54.2481 -174.9018 0.3054 -14.0871 -23.4098 -130.2645 34.0995 -73.2792 19.9418 -15.9909 -125.1407 -0.0732 -0.4555 0.1877 -2.0476 8.6447 24.9141 -53.3581 -35.8874 153.0650 6.9384 2.0710 109.0666 0.0606 0.2595 0.0750 -41.9479 16.2103 102.1950 -1.5985 32.2691 -5.1532 -3.5182 -0.9142 -0.0953 -0.2239 -1.3727 2.1366 -53.7699 -10.0446 80.2484 -0.0509 34.0178 2.3101 -2.8446 -15.9916 0.7871 1.1807 -10.0986 -5.4628 
0.0000 93.1000 0.0000 -64.1247 -43.7634 -161.7082 -71.5812 -0.0636 87.8005 90.2298 74.1295 1.3086 4.6050 27.8578 -6.2437 -130.9798 20.9217 -163.5948 -153.4126 53.9475 -173.7044 0.2942 -14.1142 -23.6330 -130.8946 33.8328 -72.1567 20.6409 -16.7146 -125.1507 -0.1106 -0.6136 -0.1000 -1.9327 8.8036 25.1385 -52.6921 -35.9459 154.1572 7.2184 2.1711 109.1783 0.1351 0.0142 -0.0461 -43.1522 15.6501 101.3613 -1.9274 30.4622 -5.2824 -4.5744 -0.8879 -0.0163 1.0450 -3.1360 0.1478 -53.2536 -10.2841 79.8800 -0.3343 34.3167 2.6808 -4.2168 -15.6940 1.1542 0.9270 -10.2200 -6.2004 
0.0000 93.1000 0.0000 -64.1367 -43.4112 -162.8880 -71.5924 -0.0882 87.8031 90.2466 73.9673 1.2097 4.6547 27.7613 -6.2518 -130.9023 20.9927 -163.6863 -153.2014 54.1635 -173.0262 0.1894 -14.1529 -23.9621 -131.8980 32.9222 -71.0879 20.1321 -16.0580 -125.0706 -0.1319 -0.5956 0.0279 -1.9393 9.1825 24.9535 -52.6558 -35.9042 155.0019 7.5192 2.1026 108.7922 -0.0528 0.0282 -0.0039 -44.1812 14.6556 100.8820 -2.2125 29.4737 -4.2389 -4.1539 -0.9453 0.0026 1.1495 -3.1997 -0.0808 -53.1717 -10.2339 80.9795 0.1622 34.9720 2.5945 -4.1135 -16.0167 1.0374 0.7988 -10.2469 -7.2823 
0.0000 93.1000 0.0000 -63.9140 -43.6852 -163.5678 -71.6037 0.0216 87.8792 89.2689 74.0109 2.1500 4.7185 27.6999 -5.8416 -130.2659 20.8697 -162.1238 -154.1788 54.0663 -173.4015 0.1489 -14.3830 -24.2376 -132.0524 32.3658 -71.1380 19.2036 -15.2748 -125.2843 0.0056 -0.6191 0.1165 -1.8105 9.0075 25.0557 -52.6522 -35.8228 154.2583 7.0680 2.1760 108.9167 -0.1016 0.2026 0.1382 -44.7423 14.5043 100.4195 -2.7828 29.0838 -2.4204 -4.1690 0.0745 -0.0892 1.4395 -3.4003 -1.3603 -52.9585 -9.7440 81.7846 0.4307 35.2604 2.5556 -3.9386 -15.9938 0.9343 1.0374 -10.1066 -7.0231 
0.0000 93.1000 0.0000 -64.1598 -43.8046 -163.5610 -71.5715 -0.0865 87.8887 88.3550 73.9484 2.7196 4.6543 27.9210 -5.7294 -129.9668 20.8219 -162.4608 -153.6555 54.1713 -173.2249 0.1335 -14.0983 -24.2820 -131.7449 32.4987 -71.2573 18.4162 -14.8980 -125.1256 -0.0466 -0.6627 0.1752 -1.8720 9.0664 24.9275 -51.7830 -35.6752 154.2266 7.2733 2.1218 108.6165 0.1339 0.1012 0.2726 -45.2229 13.9327 100.2303 -1.6813 28.2794 -1.6134 -3.6654 1.0411 -0.0758 1.3298 -3.3375 -1.9628 -53.2157 -9.9477 81.4841 -0.2287 35.4283 2.5198 -3.1368 -15.8694 0.8801 0.9171 -9.5430 -6.2459 
0.0000 93.1000 0.0000 -64.9488 -43.6879 -163.9026 -71.6044 0.0183 87.9004 88.2162 73.9406 3.5011 4.7746 27.9969 -5.9276 -129.4263 20.3457 -164.4267 -152.0962 54.1746 -172.8112 0.2084 -14.1636 -24.2741 -132.1054 32.6458 -71.4762 19.2330 -15.0388 -124.8377 -0.1150 -0.4640 0.0188 -1.8680 8.8538 24.7670 -52.4302 -36.0592 153.4905 6.7290 2.0391 108.7068 -0.0648 -0.0403 -0.0691 -45.2536 14.3701 100.3024 -1.3789 27.0181 -1.9976 -3.4297 1.0805 0.0127 0.8086 -2.9533 -1.4765 -53.2655 -10.0910 81.8321 0.0501 34.9081 2.0001 -3.5818 -15.9218 0.9160 1.1014 -9.8892 -6.1592 
